<svg width="36" height="36" viewBox="0 0 36 36" fill="none" xmlns="http://www.w3.org/2000/svg">
<path d="M13.1602 5.19136C13.5145 5.06903 13.8976 5.06902 14.252 5.19136L22.1611 7.92573L22.2939 7.97261L22.4268 7.92573L29.9961 5.30855C30.2129 5.23362 30.4442 5.21326 30.6699 5.24897C30.8954 5.28473 31.1101 5.37576 31.2959 5.5146C31.4818 5.6536 31.6341 5.83776 31.7393 6.05073C31.8443 6.26372 31.9003 6.49972 31.9004 6.73921V26.374C31.9003 26.754 31.7839 27.1242 31.5703 27.4316C31.3567 27.7388 31.056 27.9679 30.7119 28.0869L22.8389 30.8076C22.5284 30.9152 22.1974 30.9285 21.8818 30.8476L21.748 30.8076L13.8389 28.0732L13.7061 28.0263L13.5732 28.0732L6.00391 30.6904C5.78708 30.7653 5.55575 30.7857 5.33008 30.75C5.10449 30.7142 4.88997 30.6233 4.7041 30.4843C4.51821 30.3453 4.36591 30.1621 4.26074 29.9492C4.18268 29.791 4.13214 29.6199 4.11133 29.4443L4.09961 29.2539V9.62593C4.09964 9.24592 4.21611 8.87571 4.42969 8.56831C4.6433 8.26106 4.9439 8.03197 5.28809 7.91304L13.1602 5.19136ZM14.7246 26.1425L14.792 26.166L21.2754 28.4091V9.8564L21.208 9.83394L14.7246 7.59077V26.1425ZM29.7305 7.63862L23.3789 9.83687L23.3115 9.8603V28.4091L29.582 26.2402L29.8633 26.1425V7.59175L29.7305 7.63862ZM12.5557 7.63765L6.41797 9.76167L6.2041 9.83491L6.13672 9.85835V28.4072L12.4072 26.2382L12.6201 26.166L12.6885 26.1435V7.59272L12.5557 7.63765Z" fill="#888888"/>
</svg>
