<svg width="13" height="10" viewBox="0 0 13 10" fill="none" xmlns="http://www.w3.org/2000/svg">
<path d="M10.3206 6.243C10.4465 6.22162 10.5758 6.22568 10.7004 6.25361C10.8249 6.28156 10.943 6.333 11.0472 6.40594C11.1515 6.47895 11.2401 6.57185 11.3082 6.6788C11.3764 6.78578 11.4229 6.90508 11.4446 7.02975C11.4662 7.15438 11.4621 7.28243 11.4339 7.40577C11.4056 7.52898 11.3536 7.64584 11.28 7.749C11.2246 7.82656 11.1577 7.89533 11.0822 7.9534L11.0043 8.0074C9.67034 8.83042 8.12992 9.26658 6.55803 9.26658C4.9859 9.26658 3.44491 8.83067 2.11077 8.0074C1.89264 7.87119 1.73928 7.65473 1.68222 7.40577C1.62522 7.15662 1.67019 6.89486 1.80786 6.6788C1.94546 6.46286 2.16413 6.3101 2.41563 6.25361C2.66732 6.19719 2.93176 6.2417 3.15003 6.37798L3.151 6.37894C4.17397 7.00736 5.35409 7.3402 6.55803 7.3402C7.76198 7.3402 8.9421 7.00736 9.96507 6.37894L9.96604 6.37798C10.0741 6.3105 10.1946 6.2644 10.3206 6.243Z" fill="#888888"/>
<path d="M3.94319 2.38517C3.94319 3.22386 3.25635 3.90375 2.40909 3.90375C1.56184 3.90375 0.875 3.22386 0.875 2.38517C0.875 1.54647 1.56184 0.866577 2.40909 0.866577C3.25635 0.866577 3.94319 1.54647 3.94319 2.38517Z" fill="#888888"/>
<path d="M12.125 2.38517C12.125 3.22386 11.4382 3.90375 10.5909 3.90375C9.74365 3.90375 9.05682 3.22386 9.05682 2.38517C9.05682 1.54647 9.74365 0.866577 10.5909 0.866577C11.4382 0.866577 12.125 1.54647 12.125 2.38517Z" fill="#888888"/>
</svg>
