<svg width="33" height="32" viewBox="0 0 33 32" fill="none" xmlns="http://www.w3.org/2000/svg">
<path d="M3.31818 14.3091H29.6818M3.31818 14.3091C2.31403 14.3091 1.5 13.4826 1.5 12.4631V10.6171C1.5 9.59762 2.31403 8.77114 3.31818 8.77114H29.6818C30.686 8.77114 31.5 9.59762 31.5 10.6171V12.4631C31.5 13.4826 30.686 14.3091 29.6818 14.3091M3.31818 14.3091L6.19171 27.8156C6.46288 29.0902 7.57317 30 8.85751 30H24.1425C25.4268 30 26.5371 29.0902 26.8083 27.8156L29.6818 14.3091M11.9553 2L8.77273 8.30957M21.4998 2L24.6824 8.30957" stroke="#888888" stroke-width="2.2" stroke-linecap="round"/>
</svg>
