<svg width="36" height="36" viewBox="0 0 36 36" fill="none" xmlns="http://www.w3.org/2000/svg">
<path fill-rule="evenodd" clip-rule="evenodd" d="M18.0005 3C18.7514 3 19.476 3.27763 20.0346 3.77966L30.9916 13.6297L31.1073 13.74C31.3708 14.0034 31.5843 14.3136 31.7363 14.6548C31.9099 15.0446 31.9998 15.4663 32 15.893V29.9549C32 30.7625 31.679 31.5368 31.1083 32.1079C30.5376 32.6789 29.7637 33 28.9565 33H23.9762C23.169 33 22.3951 32.6789 21.8244 32.1079C21.2537 31.5368 20.9327 30.7625 20.9327 29.9549V25.1937C20.9327 24.9442 20.8334 24.7052 20.6571 24.5287C20.4808 24.3523 20.2418 24.253 19.9924 24.2529H16.0076C15.7581 24.253 15.5192 24.3522 15.3429 24.5287C15.1665 24.7052 15.0673 24.9441 15.0673 25.1937V29.9549C15.0673 30.7624 14.7463 31.5368 14.1756 32.1079C13.6049 32.6789 12.8309 32.9999 12.0238 33H7.0435C6.23631 33 5.46242 32.6789 4.89165 32.1079C4.32089 31.5368 4 30.7625 4 29.9549V15.893C4.00013 15.0304 4.36542 14.2082 5.01054 13.6297L15.9665 3.77966C16.525 3.27757 17.2497 3.00009 18.0005 3ZM17.9995 5.10431C17.7676 5.10442 17.544 5.19051 17.3715 5.34546L6.41448 15.1955C6.31663 15.2835 6.23801 15.3911 6.18427 15.5113C6.13053 15.6315 6.10242 15.7623 6.10213 15.8941V29.9549C6.10213 30.2045 6.20132 30.4445 6.37774 30.621C6.55415 30.7975 6.79401 30.8968 7.0435 30.8968H12.0238C12.273 30.8967 12.5121 30.7973 12.6885 30.621C12.8649 30.4445 12.9641 30.2045 12.9641 29.9549V25.1937C12.9641 24.3862 13.285 23.6118 13.8557 23.0407C14.4264 22.4697 15.2005 22.1487 16.0076 22.1486H19.9924C20.7995 22.1487 21.5736 22.4698 22.1443 23.0407C22.7149 23.6118 23.0359 24.3862 23.0359 25.1937V29.9549C23.0359 30.2045 23.1351 30.4445 23.3115 30.621C23.4879 30.7973 23.7269 30.8968 23.9762 30.8968H28.9565C29.2058 30.8968 29.4448 30.7973 29.6212 30.621C29.7976 30.4445 29.8968 30.2045 29.8968 29.9549V15.8941L29.8914 15.7957C29.8809 15.6976 29.8551 15.6016 29.8146 15.5113C29.7608 15.391 29.6824 15.2835 29.5844 15.1955L18.6285 5.34546C18.4559 5.19042 18.2314 5.10431 17.9995 5.10431Z" fill="#888888"/>
</svg>
