<svg width="20" height="23" viewBox="0 0 20 23" fill="none" xmlns="http://www.w3.org/2000/svg">
<path d="M20 23L10 19.5498L0 23V0H20V23Z" fill="#888888"/>
<path d="M7.27539 14.5L7.26367 13.7266L10.1582 10.6797C11.166 9.61328 11.6465 9.03906 11.6465 8.25391C11.6465 7.38672 10.9082 6.8125 9.95898 6.8125C8.95117 6.8125 8.30664 7.45703 8.30664 8.40625H7.31055C7.29883 6.90625 8.45898 5.89844 9.99414 5.89844C11.5293 5.89844 12.6309 6.92969 12.6309 8.25391C12.6309 9.20312 12.1855 9.94141 10.6855 11.4883L8.74023 13.4922V13.5625H12.7832V14.5H7.27539Z" fill="white"/>
</svg>
