<svg width="24" height="24" viewBox="0 0 24 24" fill="none" xmlns="http://www.w3.org/2000/svg">
<path d="M3 13.8519H18.8568C19.0741 13.8518 19.2869 13.7915 19.4702 13.6782C19.6536 13.5649 19.7999 13.4032 19.8921 13.212C19.9842 13.0208 20.0184 12.808 19.9906 12.5986C19.9628 12.3892 19.8742 12.1919 19.7351 12.0296L15.5802 7.92593L19.7351 3.82222C19.8742 3.66 19.9628 3.46263 19.9906 3.25324C20.0184 3.04385 19.9842 2.8311 19.8921 2.6399C19.7999 2.44869 19.6536 2.28696 19.4702 2.17364C19.2869 2.06031 19.0741 2.00008 18.8568 2H3V22" fill="#FF3535"/>
<path d="M3 13.8519H18.8568C19.0741 13.8518 19.2869 13.7915 19.4702 13.6782C19.6536 13.5649 19.7999 13.4032 19.8921 13.212C19.9842 13.0208 20.0184 12.808 19.9906 12.5986C19.9628 12.3892 19.8742 12.1919 19.7351 12.0296L15.5802 7.92593L19.7351 3.82222C19.8742 3.66 19.9628 3.46263 19.9906 3.25324C20.0184 3.04385 19.9842 2.8311 19.8921 2.6399C19.7999 2.44869 19.6536 2.28696 19.4702 2.17364C19.2869 2.06031 19.0741 2.00008 18.8568 2H3V22" stroke="#FF3535" stroke-width="2" stroke-linecap="round" stroke-linejoin="round"/>
</svg>
