<svg width="24" height="24" viewBox="0 0 24 24" fill="none" xmlns="http://www.w3.org/2000/svg">
<path d="M5.41632 7.39051C5.60959 5.63356 6.43917 4.01015 7.74625 2.83105C9.05334 1.65195 10.7461 1 12.5005 1C14.2549 1 15.9476 1.65195 17.2547 2.83105C18.5618 4.01015 19.3914 5.63356 19.5846 7.39051L19.9062 10.3038L19.9138 10.3771C20.0786 11.8222 20.5457 13.2157 21.2842 14.4655L21.3225 14.5298L22.0587 15.7679C22.7286 16.8915 23.0629 17.4534 22.9902 17.9149C22.9422 18.2213 22.7858 18.4998 22.55 18.6992C22.194 19 21.5433 19 20.243 19H4.75792C3.45643 19 2.80569 19 2.45097 18.7004C2.21441 18.501 2.05757 18.2219 2.00949 17.9149C1.93803 17.4534 2.27234 16.8915 2.94094 15.7679L3.67973 14.5285L3.71801 14.4642C4.45597 13.2147 4.9226 11.8217 5.08712 10.3771L5.09477 10.3038L5.41632 7.39051Z" stroke="black" stroke-width="2"/>
<path d="M8 19C8 20.0609 8.47411 21.0783 9.31802 21.8284C10.1619 22.5786 11.3065 23 12.5 23C13.6935 23 14.8381 22.5786 15.682 21.8284C16.5259 21.0783 17 20.0609 17 19" stroke="black" stroke-width="2" stroke-linecap="round"/>
</svg>
