<svg width="24" height="24" viewBox="0 0 24 24" fill="none" xmlns="http://www.w3.org/2000/svg">
<path d="M23 23L14.9683 14.9683M1 9.14815C1 10.2182 1.21076 11.2777 1.62024 12.2663C2.02972 13.2549 2.62991 14.1531 3.38654 14.9098C4.14316 15.6664 5.04141 16.2666 6.02999 16.6761C7.01857 17.0855 8.07812 17.2963 9.14815 17.2963C10.2182 17.2963 11.2777 17.0855 12.2663 16.6761C13.2549 16.2666 14.1531 15.6664 14.9098 14.9098C15.6664 14.1531 16.2666 13.2549 16.6761 12.2663C17.0855 11.2777 17.2963 10.2182 17.2963 9.14815C17.2963 8.07812 17.0855 7.01857 16.6761 6.02999C16.2666 5.04141 15.6664 4.14316 14.9098 3.38654C14.1531 2.62991 13.2549 2.02972 12.2663 1.62024C11.2777 1.21076 10.2182 1 9.14815 1C8.07812 1 7.01857 1.21076 6.02999 1.62024C5.04141 2.02972 4.14316 2.62991 3.38654 3.38654C2.62991 4.14316 2.02972 5.04141 1.62024 6.02999C1.21076 7.01857 1 8.07812 1 9.14815Z" stroke="black" stroke-width="2" stroke-linecap="round" stroke-linejoin="round"/>
</svg>
