<svg width="16" height="15" viewBox="0 0 16 15" fill="none" xmlns="http://www.w3.org/2000/svg">
<path d="M8 3.75C8 3.75 8 3.75 7.40889 3C6.72444 2.13 5.71333 1.5 4.5 1.5C2.56333 1.5 1 3.0075 1 4.875C1 5.5725 1.21778 6.2175 1.59111 6.75C2.22111 7.6575 8 13.5 8 13.5M8 3.75C8 3.75 8 3.75 8.59111 3C9.27556 2.13 10.2867 1.5 11.5 1.5C13.4367 1.5 15 3.0075 15 4.875C15 5.5725 14.7822 6.2175 14.4089 6.75C13.7789 7.6575 8 13.5 8 13.5" stroke="#888888" stroke-width="1.3" stroke-linecap="round" stroke-linejoin="round"/>
</svg>
