<svg width="72" height="72" viewBox="0 0 72 72" fill="none" xmlns="http://www.w3.org/2000/svg">
<path d="M9 41.5556H56.5703C57.2223 41.5553 57.8606 41.3746 58.4107 41.0347C58.9607 40.6947 59.3997 40.2095 59.6762 39.6359C59.9527 39.0623 60.0552 38.424 59.9718 37.7958C59.8884 37.1677 59.6225 36.5756 59.2053 36.0889L46.7406 23.7778L59.2053 11.4667C59.6225 10.98 59.8884 10.3879 59.9718 9.75972C60.0552 9.13155 59.9527 8.49329 59.6762 7.91969C59.3997 7.34608 58.9607 6.86089 58.4107 6.52091C57.8606 6.18093 57.2223 6.00024 56.5703 6H9V66" fill="white" fill-opacity="0.5"/>
<path d="M9 41.5556H56.5703C57.2223 41.5553 57.8606 41.3746 58.4107 41.0347C58.9607 40.6947 59.3997 40.2095 59.6762 39.6359C59.9527 39.0623 60.0552 38.424 59.9718 37.7958C59.8884 37.1677 59.6225 36.5756 59.2053 36.0889L46.7406 23.7778L59.2053 11.4667C59.6225 10.98 59.8884 10.3879 59.9718 9.75972C60.0552 9.13155 59.9527 8.49329 59.6762 7.91969C59.3997 7.34608 58.9607 6.86089 58.4107 6.52091C57.8606 6.18093 57.2223 6.00024 56.5703 6H9V66" stroke="white" stroke-width="6" stroke-linecap="round" stroke-linejoin="round"/>
</svg>
