<svg width="436" height="436" viewBox="0 0 436 436" fill="none" xmlns="http://www.w3.org/2000/svg">
<path d="M54.5 251.642H342.565C346.513 251.641 350.378 250.546 353.709 248.488C357.04 246.429 359.698 243.491 361.372 240.017C363.047 236.544 363.668 232.679 363.163 228.875C362.658 225.071 361.048 221.485 358.521 218.538L283.04 143.988L358.521 69.4371C361.048 66.49 362.658 62.9045 363.163 59.1006C363.668 55.2966 363.047 51.4316 361.372 47.9581C359.698 44.4847 357.04 41.5465 353.709 39.4877C350.378 37.429 346.513 36.3348 342.565 36.3334H54.5V399.667" fill="white" fill-opacity="0.5"/>
<path d="M54.5 251.642H342.565C346.513 251.641 350.378 250.546 353.709 248.488C357.04 246.429 359.698 243.491 361.372 240.017C363.047 236.544 363.668 232.679 363.163 228.875C362.658 225.071 361.048 221.485 358.521 218.538L283.04 143.988L358.521 69.4371C361.048 66.49 362.658 62.9045 363.163 59.1006C363.668 55.2966 363.047 51.4316 361.372 47.9581C359.698 44.4847 357.04 41.5465 353.709 39.4877C350.378 37.429 346.513 36.3348 342.565 36.3334H54.5V399.667" stroke="white" stroke-width="2" stroke-linecap="round" stroke-linejoin="round"/>
</svg>
