<svg width="29" height="30" viewBox="0 0 29 30" fill="none" xmlns="http://www.w3.org/2000/svg">
<path d="M16.7556 27.7237L17.4615 26.5308L15.7815 25.5358L15.0743 26.7287L16.7556 27.7237ZM11.5385 26.5308L12.2444 27.7237L13.9244 26.7287L13.2198 25.5358L11.5385 26.5308ZM15.0743 26.7287C15.0135 26.8262 14.9288 26.9065 14.8283 26.9622C14.7279 27.0179 14.6149 27.0471 14.5 27.0471C14.3851 27.0471 14.2721 27.0179 14.1717 26.9622C14.0712 26.9065 13.9865 26.8262 13.9257 26.7287L12.2444 27.7237C13.2511 29.4259 15.7476 29.4259 16.7556 27.7237L15.0743 26.7287ZM12.5465 2.95349H16.4535V1H12.5465V2.95349ZM26.5465 13.0465V14.3488H28.5V13.0465H26.5465ZM2.45349 14.3488V13.0465H0.5V14.3488H2.45349ZM0.5 14.3488C0.5 15.853 0.5 17.029 0.565116 17.9784C0.630232 18.9356 0.764372 19.7327 1.07042 20.4698L2.87544 19.7222C2.684 19.2638 2.572 18.7038 2.5134 17.8456C2.45349 16.9782 2.45349 15.8791 2.45349 14.3488H0.5ZM9.03414 23.1291C7.39842 23.1005 6.54149 22.9963 5.86949 22.7176L5.12326 24.5226C6.17163 24.9576 7.36456 25.0553 9.00028 25.0839L9.03414 23.1291ZM1.07042 20.4698C1.44675 21.3783 1.99835 22.2039 2.69374 22.8993C3.38913 23.5947 4.21468 24.1463 5.12326 24.5226L5.86949 22.7176C4.51335 22.1558 3.4372 21.0784 2.87544 19.7222L1.07042 20.4698ZM26.5465 14.3488C26.5465 15.8791 26.5465 16.9782 26.4866 17.8456C26.428 18.7038 26.316 19.2638 26.1259 19.7222L27.9296 20.4698C28.2356 19.7327 28.3698 18.9356 28.4362 17.9784C28.5013 17.029 28.5 15.853 28.5 14.3488H26.5465ZM19.9997 25.0813C21.6354 25.054 22.8284 24.9576 23.8767 24.5226L23.1292 22.7176C22.4585 22.9963 21.6016 23.1005 19.9672 23.1291L19.9997 25.0813ZM26.1259 19.7222C25.5641 21.0784 24.4867 22.1558 23.1305 22.7176L23.8767 24.5226C24.7853 24.1463 25.6109 23.5947 26.3063 22.8993C27.0016 22.2039 27.5533 21.3783 27.9296 20.4698L26.1259 19.7222ZM16.4535 2.95349C18.6036 2.95349 20.1482 2.95349 21.3528 3.0694C22.5432 3.1827 23.2998 3.39888 23.9041 3.76874L24.9238 2.10307C23.9614 1.51442 22.87 1.25135 21.5378 1.12372C20.2198 0.998698 18.5659 1 16.4535 1V2.95349ZM28.5 13.0465C28.5 10.9341 28.5 9.28149 28.375 7.96223C28.2486 6.62995 27.9856 5.5373 27.3969 4.57619L25.7299 5.59591C26.1011 6.20019 26.3173 6.95684 26.4306 8.14847C26.5452 9.35182 26.5465 10.8964 26.5465 13.0465H28.5ZM23.9028 3.76874C24.6479 4.22494 25.2745 4.85107 25.7313 5.59591L27.3969 4.57619C26.7793 3.56816 25.9318 2.72067 24.9238 2.10307L23.9028 3.76874ZM12.5465 1C10.4341 1 8.78149 1 7.46223 1.12372C6.12995 1.25135 5.0373 1.51442 4.07619 2.10307L5.09591 3.77005C5.70019 3.39888 6.45684 3.1827 7.64846 3.0694C8.85181 2.95479 10.3964 2.95349 12.5465 2.95349V1ZM2.45349 13.0465C2.45349 10.8964 2.45349 9.35181 2.5694 8.14716C2.6827 6.95684 2.89888 6.20019 3.26874 5.59591L1.60307 4.57749C1.01442 5.53861 0.751349 6.62995 0.623721 7.96223C0.5 9.28279 0.5 10.9341 0.5 13.0465H2.45349ZM4.07619 2.10307C3.06816 2.72067 2.22067 3.56946 1.60307 4.57749L3.27005 5.59591C3.72604 4.85137 4.3517 4.22527 5.09591 3.76874L4.07619 2.10307ZM13.2185 25.5358C12.9554 25.0891 12.7236 24.6945 12.497 24.3846C12.2648 24.0439 11.9619 23.7574 11.6088 23.5446L10.6269 25.2337C10.6881 25.2701 10.7727 25.3353 10.9186 25.5358C11.0762 25.752 11.2546 26.0515 11.5385 26.5308L13.2185 25.5358ZM9.00028 25.0813C9.5733 25.0917 9.93405 25.0995 10.2101 25.1295C10.468 25.1581 10.5683 25.1998 10.6269 25.2337L11.6088 23.5446C11.2449 23.3409 10.8409 23.2191 10.425 23.1877C10.0369 23.1447 9.5707 23.1382 9.03414 23.1291L9.00028 25.0813ZM17.4615 26.5308C17.7454 26.0528 17.9238 25.752 18.0814 25.5358C18.2273 25.3353 18.3119 25.2701 18.3731 25.2337L17.3912 23.5446C17.0135 23.766 16.74 24.059 16.503 24.3846C16.2777 24.6945 16.0446 25.0878 15.7802 25.5358L17.4615 26.5308ZM19.9672 23.1291C19.4306 23.1382 18.9631 23.1447 18.575 23.1877C18.17 23.2333 17.7727 23.3232 17.3912 23.5446L18.3731 25.2337C18.4317 25.1998 18.532 25.1581 18.7899 25.1295C19.066 25.0995 19.428 25.0904 20.001 25.0813L19.9672 23.1291Z" fill="#888888"/>
<path d="M15.9156 27.2262L16.7556 27.7237M16.7556 27.7237L17.4615 26.5308M16.7556 27.7237L15.0743 26.7287M16.7556 27.7237C15.7476 29.4259 13.2511 29.4259 12.2444 27.7237M16.6215 26.0333L15.7802 25.5358M15.7802 25.5358C16.0446 25.0878 16.2777 24.6945 16.503 24.3846C16.74 24.059 17.0135 23.766 17.3912 23.5446M15.7802 25.5358L17.4615 26.5308M12.3785 26.0333L11.5385 26.5308M11.5385 26.5308L12.2444 27.7237M11.5385 26.5308L13.2198 25.5358L13.9244 26.7287L12.2444 27.7237M11.5385 26.5308C11.2546 26.0515 11.0762 25.752 10.9186 25.5358C10.7727 25.3353 10.6881 25.2701 10.6269 25.2337M11.5385 26.5308L13.2185 25.5358C12.9554 25.0891 12.7236 24.6945 12.497 24.3846C12.2648 24.0439 11.9619 23.7574 11.6088 23.5446M13.0844 27.2262L13.9257 26.7287M13.9257 26.7287C13.9865 26.8262 14.0712 26.9065 14.1717 26.9622C14.2721 27.0179 14.3851 27.0471 14.5 27.0471C14.6149 27.0471 14.7279 27.0179 14.8283 26.9622C14.9288 26.9065 15.0135 26.8262 15.0743 26.7287M13.9257 26.7287L12.2444 27.7237M1.97293 20.096L2.87544 19.7222M2.87544 19.7222L1.07042 20.4698M2.87544 19.7222C2.684 19.2638 2.572 18.7038 2.5134 17.8456C2.45349 16.9782 2.45349 15.8791 2.45349 14.3488M2.87544 19.7222C3.4372 21.0784 4.51335 22.1558 5.86949 22.7176M9.01721 24.1046L9.00028 25.0813M9.00028 25.0813C9.5733 25.0917 9.93405 25.0995 10.2101 25.1295C10.468 25.1581 10.5683 25.1998 10.6269 25.2337M9.00028 25.0813L9.03414 23.1291M5.49702 23.6201L5.12326 24.5226M5.12326 24.5226L5.86949 22.7176M5.12326 24.5226C6.17163 24.9576 7.36456 25.0553 9.00028 25.0839L9.03414 23.1291M5.12326 24.5226C4.21468 24.1463 3.38913 23.5947 2.69374 22.8993C1.99835 22.2039 1.44675 21.3783 1.07042 20.4698M27.0271 20.096L27.9296 20.4698M27.9296 20.4698L26.1259 19.7222M27.9296 20.4698C28.2356 19.7327 28.3698 18.9356 28.4362 17.9784C28.5013 17.029 28.5 15.853 28.5 14.3488M27.9296 20.4698C27.5533 21.3783 27.0016 22.2039 26.3063 22.8993C25.6109 23.5947 24.7853 24.1463 23.8767 24.5226M19.9828 24.1046L19.9672 23.1278M23.503 23.6201L23.8767 24.5226M23.8767 24.5226C22.8284 24.9576 21.6354 25.054 19.9997 25.0813L19.9672 23.1291M23.8767 24.5226L23.1292 22.7176C22.4585 22.9963 21.6016 23.1005 19.9672 23.1291M23.8767 24.5226L23.1305 22.7176C24.4867 22.1558 25.5641 21.0784 26.1259 19.7222M24.4146 2.93656L23.9041 3.77005M26.5634 5.0854L27.3969 4.57619M27.3969 4.57619C27.9856 5.5373 28.2486 6.62995 28.375 7.96223C28.5 9.28149 28.5 10.9341 28.5 13.0465M27.3969 4.57619L25.7299 5.59591C26.1011 6.20019 26.3173 6.95684 26.4306 8.14847C26.5452 9.35182 26.5465 10.8964 26.5465 13.0465M27.3969 4.57619L25.7313 5.59591C25.2745 4.85107 24.6479 4.22494 23.9028 3.76874L24.9238 2.10307M27.3969 4.57619C26.7793 3.56816 25.9318 2.72067 24.9238 2.10307M4.5867 2.93786L4.07619 2.10437M2.43656 5.0867L1.60307 4.57749M1.60307 4.57749L3.26874 5.59591C2.89888 6.20019 2.6827 6.95684 2.5694 8.14716C2.45349 9.35181 2.45349 10.8964 2.45349 13.0465M1.60307 4.57749C1.01442 5.53861 0.751349 6.62995 0.623721 7.96223C0.5 9.28279 0.5 10.9341 0.5 13.0465M1.60307 4.57749C2.22067 3.56946 3.06816 2.72067 4.07619 2.10307M1.60307 4.57749L3.27005 5.59591C3.72604 4.85137 4.3517 4.22527 5.09591 3.76874L4.07619 2.10307M11.1179 24.3898L11.6088 23.5446M11.6088 23.5446L10.6269 25.2337M11.6088 23.5446C11.2449 23.3409 10.8409 23.2191 10.425 23.1877C10.0369 23.1447 9.5707 23.1382 9.03414 23.1291M17.4615 26.5308L15.7815 25.5358L15.0743 26.7287M17.4615 26.5308C17.7454 26.0528 17.9238 25.752 18.0814 25.5358C18.2273 25.3353 18.3119 25.2701 18.3731 25.2337M12.5465 2.95349H16.4535M12.5465 2.95349V1M12.5465 2.95349C10.3964 2.95349 8.85181 2.95479 7.64846 3.0694C6.45684 3.1827 5.70019 3.39888 5.09591 3.77005L4.07619 2.10307M16.4535 2.95349V1M16.4535 2.95349C18.6036 2.95349 20.1482 2.95349 21.3528 3.0694C22.5432 3.1827 23.2998 3.39888 23.9041 3.76874L24.9238 2.10307M16.4535 1H12.5465M16.4535 1C18.5659 1 20.2198 0.998698 21.5378 1.12372C22.87 1.25135 23.9614 1.51442 24.9238 2.10307M12.5465 1C10.4341 1 8.78149 1 7.46223 1.12372C6.12995 1.25135 5.0373 1.51442 4.07619 2.10307M26.5465 13.0465V14.3488M26.5465 13.0465H28.5M26.5465 14.3488H28.5M26.5465 14.3488C26.5465 15.8791 26.5465 16.9782 26.4866 17.8456C26.428 18.7038 26.316 19.2638 26.1259 19.7222M28.5 14.3488V13.0465M2.45349 14.3488V13.0465M2.45349 14.3488H0.5M2.45349 13.0465H0.5M0.5 13.0465V14.3488M0.5 14.3488C0.5 15.853 0.5 17.029 0.565116 17.9784C0.630232 18.9356 0.764372 19.7327 1.07042 20.4698M9.03414 23.1291C7.39842 23.1005 6.54149 22.9963 5.86949 22.7176M19.9672 23.1291C19.4306 23.1382 18.9631 23.1447 18.575 23.1877C18.17 23.2333 17.7727 23.3232 17.3912 23.5446M19.9672 23.1291L20.001 25.0813C19.428 25.0904 19.066 25.0995 18.7899 25.1295C18.532 25.1581 18.4317 25.1998 18.3731 25.2337M18.3731 25.2337L17.3912 23.5446" stroke="#888888" stroke-width="0.1"/>
<path d="M9.29053 10.6589H19.7091M9.29053 16.7365H16.4533" stroke="#888888" stroke-width="2.1" stroke-linecap="round"/>
</svg>
