<svg width="37" height="36" viewBox="0 0 37 36" fill="none" xmlns="http://www.w3.org/2000/svg">
<path d="M22.3206 25.243C22.4465 25.2216 22.5758 25.2257 22.7004 25.2536C22.8249 25.2816 22.943 25.333 23.0472 25.4059C23.1515 25.4789 23.2401 25.5718 23.3082 25.6788C23.3764 25.7858 23.4229 25.9051 23.4446 26.0297C23.4662 26.1544 23.4621 26.2824 23.4339 26.4058C23.4056 26.529 23.3536 26.6458 23.28 26.749C23.2246 26.8266 23.1577 26.8953 23.0822 26.9534L23.0043 27.0074C21.6703 27.8304 20.1299 28.2666 18.558 28.2666C16.9859 28.2666 15.4449 27.8307 14.1108 27.0074C13.8926 26.8712 13.7393 26.6547 13.6822 26.4058C13.6252 26.1566 13.6702 25.8949 13.8079 25.6788C13.9455 25.4629 14.1641 25.3101 14.4156 25.2536C14.6673 25.1972 14.9318 25.2417 15.15 25.378L15.151 25.3789C16.174 26.0074 17.3541 26.3402 18.558 26.3402C19.762 26.3402 20.9421 26.0074 21.9651 25.3789L21.966 25.378C22.0741 25.3105 22.1946 25.2644 22.3206 25.243Z" fill="#FF3535"/>
<path d="M15.9432 21.3852C15.9432 22.2239 15.2563 22.9038 14.4091 22.9038C13.5618 22.9038 12.875 22.2239 12.875 21.3852C12.875 20.5465 13.5618 19.8666 14.4091 19.8666C15.2563 19.8666 15.9432 20.5465 15.9432 21.3852Z" fill="#FF3535"/>
<path d="M24.125 21.3852C24.125 22.2239 23.4382 22.9038 22.5909 22.9038C21.7437 22.9038 21.0568 22.2239 21.0568 21.3852C21.0568 20.5465 21.7437 19.8666 22.5909 19.8666C23.4382 19.8666 24.125 20.5465 24.125 21.3852Z" fill="#FF3535"/>
<path d="M5.31818 16.3091H31.6818M5.31818 16.3091C4.31403 16.3091 3.5 15.4826 3.5 14.4631V12.6171C3.5 11.5976 4.31403 10.7711 5.31818 10.7711H31.6818C32.686 10.7711 33.5 11.5976 33.5 12.6171V14.4631C33.5 15.4826 32.686 16.3091 31.6818 16.3091M5.31818 16.3091L8.19171 29.8156C8.46288 31.0902 9.57317 32 10.8575 32H26.1425C27.4268 32 28.5371 31.0902 28.8083 29.8156L31.6818 16.3091M13.9553 4L10.7727 10.3096M23.4998 4L26.6824 10.3096" stroke="#FF3535" stroke-width="2.2" stroke-linecap="round"/>
</svg>
