<svg width="36" height="36" viewBox="0 0 36 36" fill="none" xmlns="http://www.w3.org/2000/svg">
<path d="M21.8206 25.2431C21.9465 25.2217 22.0758 25.2258 22.2004 25.2537C22.3249 25.2817 22.443 25.3331 22.5472 25.4061C22.6515 25.4791 22.7401 25.572 22.8082 25.6789C22.8764 25.7859 22.9229 25.9052 22.9446 26.0299C22.9662 26.1545 22.9621 26.2826 22.9339 26.4059C22.9056 26.5291 22.8536 26.646 22.78 26.7491C22.7246 26.8267 22.6577 26.8955 22.5822 26.9535L22.5043 27.0075C21.1703 27.8305 19.6299 28.2667 18.058 28.2667C16.4859 28.2667 14.9449 27.8308 13.6108 27.0075C13.3926 26.8713 13.2393 26.6549 13.1822 26.4059C13.1252 26.1567 13.1702 25.895 13.3079 25.6789C13.4455 25.463 13.6641 25.3102 13.9156 25.2537C14.1673 25.1973 14.4318 25.2418 14.65 25.3781L14.651 25.3791C15.674 26.0075 16.8541 26.3403 18.058 26.3403C19.262 26.3403 20.4421 26.0075 21.4651 25.3791L21.466 25.3781C21.5741 25.3106 21.6946 25.2645 21.8206 25.2431Z" fill="#888888"/>
<path d="M15.4432 21.3853C15.4432 22.224 14.7563 22.9039 13.9091 22.9039C13.0618 22.9039 12.375 22.224 12.375 21.3853C12.375 20.5466 13.0618 19.8667 13.9091 19.8667C14.7563 19.8667 15.4432 20.5466 15.4432 21.3853Z" fill="#888888"/>
<path d="M23.625 21.3853C23.625 22.224 22.9382 22.9039 22.0909 22.9039C21.2437 22.9039 20.5568 22.224 20.5568 21.3853C20.5568 20.5466 21.2437 19.8667 22.0909 19.8667C22.9382 19.8667 23.625 20.5466 23.625 21.3853Z" fill="#888888"/>
<path d="M4.81818 16.3091H31.1818M4.81818 16.3091C3.81403 16.3091 3 15.4826 3 14.4631V12.6171C3 11.5976 3.81403 10.7711 4.81818 10.7711H31.1818C32.186 10.7711 33 11.5976 33 12.6171V14.4631C33 15.4826 32.186 16.3091 31.1818 16.3091M4.81818 16.3091L7.69171 29.8156C7.96288 31.0902 9.07317 32 10.3575 32H25.6425C26.9268 32 28.0371 31.0902 28.3083 29.8156L31.1818 16.3091M13.4553 4L10.2727 10.3096M22.9998 4L26.1824 10.3096" stroke="#888888" stroke-width="2.2" stroke-linecap="round"/>
</svg>
