<svg width="37" height="36" viewBox="0 0 37 36" fill="none" xmlns="http://www.w3.org/2000/svg">
<path fill-rule="evenodd" clip-rule="evenodd" d="M18.5005 3C19.2514 3 19.976 3.27763 20.5346 3.77966L31.4916 13.6297L31.6073 13.74C31.8708 14.0034 32.0843 14.3136 32.2363 14.6548C32.4099 15.0446 32.4998 15.4663 32.5 15.893V29.9549C32.5 30.7625 32.179 31.5368 31.6083 32.1079C31.0376 32.6789 30.2637 33 29.4565 33H24.4762C23.669 33 22.8951 32.6789 22.3244 32.1079C21.7537 31.5368 21.4327 30.7625 21.4327 29.9549V25.1937C21.4327 24.9442 21.3334 24.7052 21.1571 24.5287C20.9808 24.3523 20.7418 24.253 20.4924 24.2529H16.5076C16.2581 24.253 16.0192 24.3522 15.8429 24.5287C15.6665 24.7052 15.5673 24.9441 15.5673 25.1937V29.9549C15.5673 30.7624 15.2463 31.5368 14.6756 32.1079C14.1049 32.6789 13.3309 32.9999 12.5238 33H7.5435C6.73631 33 5.96242 32.6789 5.39165 32.1079C4.82089 31.5368 4.5 30.7625 4.5 29.9549V15.893C4.50013 15.0304 4.86542 14.2082 5.51054 13.6297L16.4665 3.77966C17.025 3.27757 17.7497 3.00009 18.5005 3ZM18.4995 5.10431C18.2676 5.10442 18.044 5.19051 17.8715 5.34546L6.91448 15.1955C6.81663 15.2835 6.73801 15.3911 6.68427 15.5113C6.63053 15.6315 6.60242 15.7623 6.60213 15.8941V29.9549C6.60213 30.2045 6.70132 30.4445 6.87774 30.621C7.05415 30.7975 7.29401 30.8968 7.5435 30.8968H12.5238C12.773 30.8967 13.0121 30.7973 13.1885 30.621C13.3649 30.4445 13.4641 30.2045 13.4641 29.9549V25.1937C13.4641 24.3861 13.785 23.6118 14.3557 23.0407C14.9264 22.4697 15.7005 22.1487 16.5076 22.1486H20.4924C21.2995 22.1487 22.0736 22.4698 22.6443 23.0407C23.2149 23.6118 23.5359 24.3862 23.5359 25.1937V29.9549C23.5359 30.2045 23.6351 30.4445 23.8115 30.621C23.9879 30.7973 24.2269 30.8968 24.4762 30.8968H29.4565C29.7058 30.8968 29.9448 30.7973 30.1212 30.621C30.2976 30.4445 30.3968 30.2045 30.3968 29.9549V15.8941L30.3914 15.7957C30.3809 15.6976 30.3551 15.6016 30.3146 15.5113C30.2608 15.391 30.1824 15.2835 30.0844 15.1955L19.1285 5.34546C18.9559 5.19042 18.7314 5.10431 18.4995 5.10431Z" fill="#FF3535"/>
</svg>
