<svg width="36" height="36" viewBox="0 0 36 36" fill="none" xmlns="http://www.w3.org/2000/svg">
<path d="M20.2556 30.7237L20.9615 29.5308L19.2815 28.5358L18.5743 29.7287L20.2556 30.7237ZM15.0385 29.5308L15.7444 30.7237L17.4244 29.7287L16.7198 28.5358L15.0385 29.5308ZM18.5743 29.7287C18.5135 29.8262 18.4288 29.9065 18.3283 29.9622C18.2279 30.0179 18.1149 30.0471 18 30.0471C17.8851 30.0471 17.7721 30.0179 17.6717 29.9622C17.5712 29.9065 17.4865 29.8262 17.4257 29.7287L15.7444 30.7237C16.7511 32.4259 19.2476 32.4259 20.2556 30.7237L18.5743 29.7287ZM16.0465 5.95349H19.9535V4H16.0465V5.95349ZM30.0465 16.0465V17.3488H32V16.0465H30.0465ZM5.95349 17.3488V16.0465H4V17.3488H5.95349ZM4 17.3488C4 18.853 4 20.029 4.06512 20.9784C4.13023 21.9356 4.26437 22.7327 4.57042 23.4698L6.37544 22.7222C6.184 22.2638 6.072 21.7038 6.0134 20.8456C5.95349 19.9782 5.95349 18.8791 5.95349 17.3488H4ZM12.5341 26.1291C10.8984 26.1005 10.0415 25.9963 9.36949 25.7176L8.62326 27.5226C9.67163 27.9576 10.8646 28.0553 12.5003 28.0839L12.5341 26.1291ZM4.57042 23.4698C4.94675 24.3783 5.49835 25.2039 6.19374 25.8993C6.88913 26.5947 7.71468 27.1463 8.62326 27.5226L9.36949 25.7176C8.01335 25.1558 6.9372 24.0784 6.37544 22.7222L4.57042 23.4698ZM30.0465 17.3488C30.0465 18.8791 30.0465 19.9782 29.9866 20.8456C29.928 21.7038 29.816 22.2638 29.6259 22.7222L31.4296 23.4698C31.7356 22.7327 31.8698 21.9356 31.9362 20.9784C32.0013 20.029 32 18.853 32 17.3488H30.0465ZM23.4997 28.0813C25.1354 28.054 26.3284 27.9576 27.3767 27.5226L26.6292 25.7176C25.9585 25.9963 25.1016 26.1005 23.4672 26.1291L23.4997 28.0813ZM29.6259 22.7222C29.0641 24.0784 27.9867 25.1558 26.6305 25.7176L27.3767 27.5226C28.2853 27.1463 29.1109 26.5947 29.8063 25.8993C30.5016 25.2039 31.0533 24.3783 31.4296 23.4698L29.6259 22.7222ZM19.9535 5.95349C22.1036 5.95349 23.6482 5.95349 24.8528 6.0694C26.0432 6.1827 26.7998 6.39888 27.4041 6.76874L28.4238 5.10307C27.4614 4.51442 26.37 4.25135 25.0378 4.12372C23.7198 3.9987 22.0659 4 19.9535 4V5.95349ZM32 16.0465C32 13.9341 32 12.2815 31.875 10.9622C31.7486 9.62995 31.4856 8.5373 30.8969 7.57619L29.2299 8.59591C29.6011 9.20019 29.8173 9.95684 29.9306 11.1485C30.0452 12.3518 30.0465 13.8964 30.0465 16.0465H32ZM27.4028 6.76874C28.1479 7.22494 28.7745 7.85107 29.2313 8.59591L30.8969 7.57619C30.2793 6.56816 29.4318 5.72067 28.4238 5.10307L27.4028 6.76874ZM16.0465 4C13.9341 4 12.2815 4 10.9622 4.12372C9.62995 4.25135 8.5373 4.51442 7.57619 5.10307L8.59591 6.77005C9.20019 6.39888 9.95684 6.1827 11.1485 6.0694C12.3518 5.95479 13.8964 5.95349 16.0465 5.95349V4ZM5.95349 16.0465C5.95349 13.8964 5.95349 12.3518 6.0694 11.1472C6.1827 9.95684 6.39888 9.20019 6.76874 8.59591L5.10307 7.57749C4.51442 8.53861 4.25135 9.62995 4.12372 10.9622C4 12.2828 4 13.9341 4 16.0465H5.95349ZM7.57619 5.10307C6.56816 5.72067 5.72067 6.56946 5.10307 7.57749L6.77005 8.59591C7.22604 7.85137 7.8517 7.22527 8.59591 6.76874L7.57619 5.10307ZM16.7185 28.5358C16.4554 28.0891 16.2236 27.6945 15.997 27.3846C15.7648 27.0439 15.4619 26.7574 15.1088 26.5446L14.1269 28.2337C14.1881 28.2701 14.2727 28.3353 14.4186 28.5358C14.5762 28.752 14.7546 29.0515 15.0385 29.5308L16.7185 28.5358ZM12.5003 28.0813C13.0733 28.0917 13.434 28.0995 13.7101 28.1295C13.968 28.1581 14.0683 28.1998 14.1269 28.2337L15.1088 26.5446C14.7449 26.3409 14.3409 26.2191 13.925 26.1877C13.5369 26.1447 13.0707 26.1382 12.5341 26.1291L12.5003 28.0813ZM20.9615 29.5308C21.2454 29.0528 21.4238 28.752 21.5814 28.5358C21.7273 28.3353 21.8119 28.2701 21.8731 28.2337L20.8912 26.5446C20.5135 26.766 20.24 27.059 20.003 27.3846C19.7777 27.6945 19.5446 28.0878 19.2802 28.5358L20.9615 29.5308ZM23.4672 26.1291C22.9306 26.1382 22.4631 26.1447 22.075 26.1877C21.67 26.2333 21.2727 26.3232 20.8912 26.5446L21.8731 28.2337C21.9317 28.1998 22.032 28.1581 22.2899 28.1295C22.566 28.0995 22.928 28.0904 23.501 28.0813L23.4672 26.1291Z" fill="#888888"/>
<path d="M19.4156 30.2262L20.2556 30.7237M20.2556 30.7237L20.9615 29.5308M20.2556 30.7237L18.5743 29.7287M20.2556 30.7237C19.2476 32.4259 16.7511 32.4259 15.7444 30.7237M20.1215 29.0333L19.2802 28.5358M19.2802 28.5358C19.5446 28.0878 19.7777 27.6945 20.003 27.3846C20.24 27.059 20.5135 26.766 20.8912 26.5446M19.2802 28.5358L20.9615 29.5308M15.8785 29.0333L15.0385 29.5308M15.0385 29.5308L15.7444 30.7237M15.0385 29.5308L16.7198 28.5358L17.4244 29.7287L15.7444 30.7237M15.0385 29.5308C14.7546 29.0515 14.5762 28.752 14.4186 28.5358C14.2727 28.3353 14.1881 28.2701 14.1269 28.2337M15.0385 29.5308L16.7185 28.5358C16.4554 28.0891 16.2236 27.6945 15.997 27.3846C15.7648 27.0439 15.4619 26.7574 15.1088 26.5446M16.5844 30.2262L17.4257 29.7287M17.4257 29.7287C17.4865 29.8262 17.5712 29.9065 17.6717 29.9622C17.7721 30.0179 17.8851 30.0471 18 30.0471C18.1149 30.0471 18.2279 30.0179 18.3283 29.9622C18.4288 29.9065 18.5135 29.8262 18.5743 29.7287M17.4257 29.7287L15.7444 30.7237M5.47293 23.096L6.37544 22.7222M6.37544 22.7222L4.57042 23.4698M6.37544 22.7222C6.184 22.2638 6.072 21.7038 6.0134 20.8456C5.95349 19.9782 5.95349 18.8791 5.95349 17.3488M6.37544 22.7222C6.9372 24.0784 8.01335 25.1558 9.36949 25.7176M12.5172 27.1046L12.5003 28.0813M12.5003 28.0813C13.0733 28.0917 13.434 28.0995 13.7101 28.1295C13.968 28.1581 14.0683 28.1998 14.1269 28.2337M12.5003 28.0813L12.5341 26.1291M8.99702 26.6201L8.62326 27.5226M8.62326 27.5226L9.36949 25.7176M8.62326 27.5226C9.67163 27.9576 10.8646 28.0553 12.5003 28.0839L12.5341 26.1291M8.62326 27.5226C7.71468 27.1463 6.88913 26.5947 6.19374 25.8993C5.49835 25.2039 4.94675 24.3783 4.57042 23.4698M30.5271 23.096L31.4296 23.4698M31.4296 23.4698L29.6259 22.7222M31.4296 23.4698C31.7356 22.7327 31.8698 21.9356 31.9362 20.9784C32.0013 20.029 32 18.853 32 17.3488M31.4296 23.4698C31.0533 24.3783 30.5016 25.2039 29.8063 25.8993C29.1109 26.5947 28.2853 27.1463 27.3767 27.5226M23.4828 27.1046L23.4672 26.1278M27.003 26.6201L27.3767 27.5226M27.3767 27.5226C26.3284 27.9576 25.1354 28.054 23.4997 28.0813L23.4672 26.1291M27.3767 27.5226L26.6292 25.7176C25.9585 25.9963 25.1016 26.1005 23.4672 26.1291M27.3767 27.5226L26.6305 25.7176C27.9867 25.1558 29.0641 24.0784 29.6259 22.7222M27.9146 5.93656L27.4041 6.77005M30.0634 8.0854L30.8969 7.57619M30.8969 7.57619C31.4856 8.5373 31.7486 9.62995 31.875 10.9622C32 12.2815 32 13.9341 32 16.0465M30.8969 7.57619L29.2299 8.59591C29.6011 9.20019 29.8173 9.95684 29.9306 11.1485C30.0452 12.3518 30.0465 13.8964 30.0465 16.0465M30.8969 7.57619L29.2313 8.59591C28.7745 7.85107 28.1479 7.22494 27.4028 6.76874L28.4238 5.10307M30.8969 7.57619C30.2793 6.56816 29.4318 5.72067 28.4238 5.10307M8.0867 5.93786L7.57619 5.10437M5.93656 8.0867L5.10307 7.57749M5.10307 7.57749L6.76874 8.59591C6.39888 9.20019 6.1827 9.95684 6.0694 11.1472C5.95349 12.3518 5.95349 13.8964 5.95349 16.0465M5.10307 7.57749C4.51442 8.53861 4.25135 9.62995 4.12372 10.9622C4 12.2828 4 13.9341 4 16.0465M5.10307 7.57749C5.72067 6.56946 6.56816 5.72067 7.57619 5.10307M5.10307 7.57749L6.77005 8.59591C7.22604 7.85137 7.8517 7.22527 8.59591 6.76874L7.57619 5.10307M14.6179 27.3898L15.1088 26.5446M15.1088 26.5446L14.1269 28.2337M15.1088 26.5446C14.7449 26.3409 14.3409 26.2191 13.925 26.1877C13.5369 26.1447 13.0707 26.1382 12.5341 26.1291M20.9615 29.5308L19.2815 28.5358L18.5743 29.7287M20.9615 29.5308C21.2454 29.0528 21.4238 28.752 21.5814 28.5358C21.7273 28.3353 21.8119 28.2701 21.8731 28.2337M16.0465 5.95349H19.9535M16.0465 5.95349V4M16.0465 5.95349C13.8964 5.95349 12.3518 5.95479 11.1485 6.0694C9.95684 6.1827 9.20019 6.39888 8.59591 6.77005L7.57619 5.10307M19.9535 5.95349V4M19.9535 5.95349C22.1036 5.95349 23.6482 5.95349 24.8528 6.0694C26.0432 6.1827 26.7998 6.39888 27.4041 6.76874L28.4238 5.10307M19.9535 4H16.0465M19.9535 4C22.0659 4 23.7198 3.9987 25.0378 4.12372C26.37 4.25135 27.4614 4.51442 28.4238 5.10307M16.0465 4C13.9341 4 12.2815 4 10.9622 4.12372C9.62995 4.25135 8.5373 4.51442 7.57619 5.10307M30.0465 16.0465V17.3488M30.0465 16.0465H32M30.0465 17.3488H32M30.0465 17.3488C30.0465 18.8791 30.0465 19.9782 29.9866 20.8456C29.928 21.7038 29.816 22.2638 29.6259 22.7222M32 17.3488V16.0465M5.95349 17.3488V16.0465M5.95349 17.3488H4M5.95349 16.0465H4M4 16.0465V17.3488M4 17.3488C4 18.853 4 20.029 4.06512 20.9784C4.13023 21.9356 4.26437 22.7327 4.57042 23.4698M12.5341 26.1291C10.8984 26.1005 10.0415 25.9963 9.36949 25.7176M23.4672 26.1291C22.9306 26.1382 22.4631 26.1447 22.075 26.1877C21.67 26.2333 21.2727 26.3232 20.8912 26.5446M23.4672 26.1291L23.501 28.0813C22.928 28.0904 22.566 28.0995 22.2899 28.1295C22.032 28.1581 21.9317 28.1998 21.8731 28.2337M21.8731 28.2337L20.8912 26.5446" stroke="#888888" stroke-width="0.1"/>
<path d="M12.7905 13.6589H23.2091M12.7905 19.7365H19.9533" stroke="#888888" stroke-width="2.1" stroke-linecap="round"/>
</svg>
