<svg width="29" height="30" viewBox="0 0 29 30" fill="none" xmlns="http://www.w3.org/2000/svg">
<path fill-rule="evenodd" clip-rule="evenodd" d="M14.5005 0C15.2514 0 15.976 0.277633 16.5346 0.779656L27.4916 10.6297L27.6073 10.74C27.8708 11.0034 28.0843 11.3136 28.2363 11.6548C28.4099 12.0446 28.4998 12.4663 28.5 12.893V26.9549C28.5 27.7625 28.179 28.5368 27.6083 29.1079C27.0376 29.6789 26.2637 30 25.4565 30H20.4762C19.669 30 18.8951 29.6789 18.3244 29.1079C17.7537 28.5368 17.4327 27.7625 17.4327 26.9549V22.1937C17.4327 21.9442 17.3334 21.7052 17.1571 21.5287C16.9808 21.3523 16.7418 21.253 16.4924 21.2529H12.5076C12.2581 21.253 12.0192 21.3522 11.8429 21.5287C11.6665 21.7052 11.5673 21.9441 11.5673 22.1937V26.9549C11.5673 27.7624 11.2463 28.5368 10.6756 29.1079C10.1049 29.6789 9.33089 29.9999 8.52378 30H3.5435C2.73631 30 1.96242 29.6789 1.39165 29.1079C0.820886 28.5368 0.5 27.7625 0.5 26.9549V12.893C0.500132 12.0304 0.865423 11.2082 1.51054 10.6297L12.4665 0.779656C13.025 0.277565 13.7497 8.56255e-05 14.5005 0ZM14.4995 2.10431C14.2676 2.10442 14.044 2.19051 13.8715 2.34546L2.91448 12.1955C2.81663 12.2835 2.73801 12.3911 2.68427 12.5113C2.63053 12.6315 2.60242 12.7623 2.60213 12.8941V26.9549C2.60213 27.2045 2.70132 27.4445 2.87774 27.621C3.05415 27.7975 3.29401 27.8968 3.5435 27.8968H8.52378C8.77304 27.8967 9.01213 27.7973 9.18846 27.621C9.36488 27.4445 9.46406 27.2045 9.46406 26.9549V22.1937C9.46407 21.3862 9.78501 20.6118 10.3557 20.0407C10.9264 19.4697 11.7005 19.1487 12.5076 19.1486H16.4924C17.2995 19.1487 18.0736 19.4698 18.6443 20.0407C19.2149 20.6118 19.5359 21.3862 19.5359 22.1937V26.9549C19.5359 27.2045 19.6351 27.4445 19.8115 27.621C19.9879 27.7973 20.2269 27.8968 20.4762 27.8968H25.4565C25.7058 27.8968 25.9448 27.7973 26.1212 27.621C26.2976 27.4445 26.3968 27.2045 26.3968 26.9549V12.8941L26.3914 12.7957C26.3809 12.6976 26.3551 12.6016 26.3146 12.5113C26.2608 12.391 26.1824 12.2835 26.0844 12.1955L15.1285 2.34546C14.9559 2.19042 14.7314 2.10431 14.4995 2.10431Z" fill="#FF3535"/>
</svg>
