<svg width="29" height="26" viewBox="0 0 29 26" fill="none" xmlns="http://www.w3.org/2000/svg">
<path d="M9.66016 0.191358C10.0145 0.0690337 10.3976 0.0690195 10.752 0.191358L18.6611 2.92573L18.7939 2.97261L18.9268 2.92573L26.4961 0.308545C26.7129 0.23362 26.9442 0.21326 27.1699 0.248975C27.3954 0.284729 27.6101 0.375762 27.7959 0.5146C27.9818 0.653604 28.1341 0.837755 28.2393 1.05073C28.3443 1.26372 28.4003 1.49972 28.4004 1.73921V21.374C28.4003 21.754 28.2839 22.1242 28.0703 22.4316C27.8567 22.7388 27.556 22.9679 27.2119 23.0869L19.3389 25.8076C19.0284 25.9152 18.6974 25.9285 18.3818 25.8476L18.248 25.8076L10.3389 23.0732L10.2061 23.0263L10.0732 23.0732L2.50391 25.6904C2.28708 25.7653 2.05575 25.7857 1.83008 25.75C1.60449 25.7142 1.38997 25.6233 1.2041 25.4843C1.01821 25.3453 0.865908 25.1621 0.760742 24.9492C0.682683 24.791 0.632142 24.6199 0.611328 24.4443L0.599609 24.2539V4.62593C0.599644 4.24592 0.716109 3.87571 0.929688 3.56831C1.1433 3.26106 1.4439 3.03197 1.78809 2.91304L9.66016 0.191358ZM11.2246 21.1425L11.292 21.166L17.7754 23.4091V4.8564L17.708 4.83394L11.2246 2.59077V21.1425ZM26.2305 2.63862L19.8789 4.83687L19.8115 4.8603V23.4091L26.082 21.2402L26.3633 21.1425V2.59175L26.2305 2.63862ZM9.05566 2.63765L2.91797 4.76167L2.7041 4.83491L2.63672 4.85835V23.4072L8.90723 21.2382L9.12012 21.166L9.18848 21.1435V2.59272L9.05566 2.63765Z" fill="#888888"/>
</svg>
