<svg width="36" height="36" viewBox="0 0 36 36" fill="none" xmlns="http://www.w3.org/2000/svg">
<path d="M20.951 2C21.5205 2 22.0671 2.22609 22.4698 2.63002C22.8725 3.03396 23.0979 3.58225 23.0979 4.1535V6.6155H25.5524C26.7321 6.6155 27.8637 7.0849 28.6979 7.92162C29.532 8.75834 30 9.89345 30 11.0767V24.9233L29.985 25.2929C29.9133 26.15 29.5955 26.9714 29.0673 27.6557C28.4636 28.4377 27.6182 28.9966 26.6638 29.2453L26.549 29.2753V31.8465C26.549 32.4178 26.3236 32.966 25.9209 33.37C25.5182 33.7739 24.9716 34 24.4021 34H10.5979C10.0284 34 9.48182 33.7739 9.07913 33.37C8.67643 32.966 8.45103 32.4178 8.45103 31.8465V29.2753L8.3362 29.2453C7.38181 28.9966 6.53636 28.4377 5.93266 27.6557C5.40448 26.9714 5.0867 26.15 5.01498 25.2929L5 24.9233V11.0767C5 9.89345 5.46796 8.75834 6.30212 7.92162C7.13629 7.0849 8.26791 6.6155 9.4476 6.6155H11.9021V4.1535C11.9021 3.58225 12.1275 3.03396 12.5302 2.63002C12.9329 2.22609 13.4795 2 14.049 2H20.951ZM10.4442 29.3845V32.0007H24.5558V29.3845H10.4442ZM9.4476 8.61475C8.79674 8.61475 8.17232 8.87428 7.71209 9.33592C7.25187 9.79756 6.99313 10.4239 6.99313 11.0767V24.9233C6.99313 25.5761 7.25187 26.2024 7.71209 26.6641C8.17232 27.1257 8.79674 27.3853 9.4476 27.3853H25.5524C26.2033 27.3853 26.8277 27.1257 27.2879 26.6641C27.7481 26.2024 28.0069 25.5761 28.0069 24.9233V11.0767C28.0069 10.4239 27.7481 9.79756 27.2879 9.33592C26.8277 8.87428 26.2033 8.61475 25.5524 8.61475H9.4476ZM21.3574 20.475C21.4865 20.4528 21.6191 20.457 21.7469 20.486C21.8745 20.5151 21.9955 20.5685 22.1024 20.6443C22.2093 20.7201 22.3001 20.8167 22.37 20.9278C22.4399 21.0389 22.4876 21.1628 22.5098 21.2923C22.5319 21.4218 22.5277 21.5549 22.4988 21.683C22.4698 21.811 22.4166 21.9324 22.341 22.0396C22.2842 22.1201 22.2157 22.1916 22.1383 22.2519L22.0584 22.308C20.6908 23.163 19.1115 23.6161 17.5 23.6161C15.8882 23.6161 14.3083 23.1633 12.9406 22.308C12.7169 22.1665 12.5597 21.9416 12.5012 21.683C12.4428 21.4242 12.4889 21.1522 12.63 20.9278C12.7711 20.7034 12.9953 20.5447 13.2531 20.486C13.5112 20.4274 13.7823 20.4737 14.006 20.6152L14.007 20.6163C15.0558 21.2691 16.2657 21.6149 17.5 21.6149C18.7343 21.6149 19.9442 21.2691 20.993 20.6163L20.994 20.6152C21.1048 20.5452 21.2283 20.4973 21.3574 20.475ZM13.1672 14.1457C13.472 14.085 13.7879 14.1157 14.0749 14.2349C14.3621 14.3542 14.6082 14.5566 14.7809 14.8158C14.9537 15.0752 15.0455 15.3804 15.0455 15.6922C15.0455 16.1105 14.88 16.5113 14.5852 16.8071C14.2904 17.1028 13.8908 17.2688 13.4738 17.2688C13.1629 17.2688 12.8586 17.1767 12.6001 17.0034C12.3416 16.8301 12.1398 16.5833 12.0209 16.2952C11.9021 16.0073 11.8714 15.6904 11.932 15.3848C11.9927 15.0788 12.1425 14.798 12.3624 14.5774C12.5823 14.3569 12.8623 14.2066 13.1672 14.1457ZM21.5262 14.1157C21.9432 14.1157 22.3428 14.2817 22.6376 14.5774C22.9324 14.8732 23.0979 15.274 23.0979 15.6922C23.0979 16.0041 23.0061 16.3093 22.8333 16.5687C22.6606 16.8279 22.4145 17.0303 22.1273 17.1496C21.8403 17.2688 21.5244 17.2995 21.2196 17.2388C20.9147 17.1779 20.6347 17.0276 20.4148 16.8071C20.1949 16.5865 20.0451 16.3057 19.9844 15.9998C19.9238 15.6941 19.9545 15.3772 20.0733 15.0893C20.1922 14.8012 20.394 14.5544 20.6525 14.3811C20.911 14.2078 21.2153 14.1157 21.5262 14.1157ZM13.8952 3.99925V6.6155H21.1048V3.99925H13.8952Z" fill="#888888" stroke="#888888" stroke-width="0.2"/>
</svg>
