<?xml version="1.0" encoding="utf-8"?>
<!-- Generator: Adobe Illustrator 24.1.2, SVG Export Plug-In . SVG Version: 6.00 Build 0)  -->
<svg version="1.1" id="Layer_1" xmlns="http://www.w3.org/2000/svg" xmlns:xlink="http://www.w3.org/1999/xlink" x="0px" y="0px"
	 viewBox="0 0 250 250" style="enable-background:new 0 0 250 250;" xml:space="preserve">
<style type="text/css">
	.st0{fill:#FFFFFF;}
	.st1{fill:#FF3535;}
</style>
<desc>Created with Sketch.</desc>
<path class="st0" d="M92.1,112.9c2.4-6.2,4.7-9.7,4.7-9.7c2.7,0.2,7.2,0,10.2-0.1c6.9-0.4,13.9-3.5,13.9-11.7
	c0-5.9-7.2-8.6-13.5-8.6c-14.3,0-22.6,2.1-30.7,18.2c-6.6,13.1-13.6,32.8-13.6,45.8c0,11.1,8.9,16.8,19,16.8
	c9.2,0,22.5-3.5,22.5-15.6c0-5-3.8-7.5-9.8-7.6c-5.3-0.1-8.3,0.6-12.4,1.6c1.3-5,2.8-9.6,3.7-11.9c10.6,1.9,19.2,1.2,22.1-8.7
	C110.3,114,104.9,111.1,92.1,112.9z"/>
<path class="st0" d="M59.3,83.5c-6.3,0-10.3,2.6-13.5,8c-7.1,11.3-22,45.2-21.7,59.9c0.2,8.4,6.7,11.7,13.9,11.9
	c10,0.2,21.5-2.6,22.6-15.1c0.4-4.2-2.7-8.7-15.2-6.5c5.2-11.7,21.1-41.6,21.4-51.4C66.8,86.6,65.3,83.5,59.3,83.5z"/>
<path class="st0" d="M151.6,116c-7.1,0.3-11.4,1.9-13.7,9.1c-2.3,7.5,6.1,7.7,6.1,7.7c-1.7,7.7-6.7,12.4-11.1,12.4
	c-2.8,0-5.3-1.2-4.4-7c1.2-8.6,9.3-29.4,13-34.6c1.7-2.4,3.9-4.5,7.4-4.5c4.2,0,3.8,2.2,2.8,5.1c-2.9,8.2,5.8,8.4,7.9,8.2
	c7.5-0.6,11.7-5.5,12.7-13.7c1.4-11.3-8.1-15.6-20.1-15.6c-20.1,0-28,12.3-35.5,29.8c-3.5,8.2-8,22.3-8,31.3
	c0,12.6,7.7,19.4,20,19.4c18,0,30.8-14.4,34.4-32.3C164.2,125.8,165.6,115.5,151.6,116z"/>
<path class="st0" d="M206.9,83.2c-20.5-0.2-26.9,13.3-33.3,30c-3.6,9.2-7.9,23.2-7.9,33.1c0.1,13.8,10.2,17.1,19.1,17.2
	c9,0.1,19.2-2,27.7-17.2c5.2-9.3,10-21.8,12.1-32.4C226.5,104.7,230.7,83.5,206.9,83.2z M207.6,103.5c-0.3,6.4-9.6,31.9-12.9,37.5
	c-1.4,2.4-3.1,4.5-6,4.4c-2.5,0-3.7-1.8-3.8-3.9c-0.2-5.8,10.4-34.6,14-39.3c1.6-2.5,3.4-2.9,5.4-2.8
	C207.4,99.5,207.7,101.7,207.6,103.5z"/>
<path class="st1" d="M204.4,99.5c-2,0-3.8,0.4-5.4,2.8c-3.6,4.7-14.2,33.5-14,39.3c0.1,2.1,1.2,3.9,3.8,3.9c2.9,0,4.5-2,6-4.4
	c3.3-5.6,12.7-31.1,12.9-37.5C207.7,101.7,207.4,99.5,204.4,99.5z"/>
<path class="st1" d="M206,75.7c-12.9,0-21.8,5.1-27.8,12.3c-1-2.1-1.8-3.1-2.9-4.3c-4.9-5.6-12.9-8.2-23.5-8.2
	c-10.4,0-19.1,3.3-25.1,8.4c-3.1-5.1-10.6-8.5-19.6-8.5c-11.8,0-24.6,1.7-32.2,13.9c-0.2-4.4-0.6-6.7-3.1-9.4c-3-3.2-7.9-4-12.6-4
	c-8.7,0-15.2,3.8-19.8,11.5c-6.8,10.9-23.3,46.6-22.9,63.8c0.2,11.2,7.7,19.2,21.1,19.5c10.5,0.3,18.7-2.6,23.9-7.8
	c4.7,5.1,11.8,8.1,20.4,8.1c9.5,0,19.1-2.9,24.8-9.1c4.8,5.9,12.3,9.3,21.9,9.2c12.6-0.1,23.7-6,31-15.2c4,10.8,14.1,15.1,25.1,15.1
	c24.1,0,34.7-16.6,43.6-42.8c2-5.9,4.6-15.8,5.1-24.1C234.1,90.3,228.3,75.7,206,75.7z M224.6,113.9c-2.1,10.6-6.9,23.1-12.1,32.4
	c-8.5,15.2-18.7,17.3-27.7,17.2s-19.1-3.4-19.1-17.2c-0.1-9.9,4.2-23.9,7.9-33.1c6.3-16.7,12.8-30.2,33.3-30
	C230.7,83.5,226.5,104.7,224.6,113.9z M108.6,144.2c0-9,4.5-23.1,8-31.3c7.5-17.6,15.4-29.8,35.5-29.8c12,0,21.5,4.3,20.1,15.6
	c-1,8.3-5.2,13.1-12.7,13.7c-2.1,0.2-10.7-0.1-7.9-8.2c1-2.8,1.4-5.1-2.8-5.1c-3.5,0-5.7,2.2-7.4,4.5c-3.7,5.2-11.7,26-13,34.6
	c-0.8,5.9,1.7,7,4.4,7c4.4,0,9.4-4.7,11.1-12.4c0,0-8.4-0.2-6.1-7.7c2.3-7.3,6.6-8.8,13.7-9.1c14-0.6,12.6,9.8,11.5,15.3
	c-3.6,17.9-16.4,32.3-34.4,32.3C116.3,163.7,108.6,156.8,108.6,144.2z M94.8,140.4c6,0.1,9.8,2.6,9.8,7.6c0,12-13.3,15.6-22.5,15.6
	c-10.1,0-19-5.8-19-16.8c0-13,7-32.7,13.6-45.8c8.1-16.1,16.4-18.2,30.7-18.2c6.3,0,13.5,2.7,13.5,8.6c0,8.2-7,11.3-13.9,11.7
	c-2.9,0.2-7.5,0.3-10.2,0.1c0,0-2.3,3.5-4.7,9.7c12.8-1.8,18.2,1.1,16,8.5c-2.9,10-11.6,10.6-22.1,8.7c-0.8,2.2-2.4,6.9-3.7,11.9
	C86.5,141,89.5,140.3,94.8,140.4z M60.6,148.2c-1.2,12.5-12.7,15.3-22.6,15.1c-7.2-0.2-13.7-3.5-13.9-11.9
	c-0.3-14.7,14.7-48.7,21.7-59.9c3.3-5.4,7.2-8,13.5-8c6,0,7.5,3.1,7.4,6.8c-0.2,9.8-16.1,39.7-21.4,51.4
	C57.8,139.5,61,144.1,60.6,148.2z"/>
<path class="st1" d="M239.5,75.7L239.5,75.7c1-0.1,1.7-0.8,1.7-1.8s-0.6-1.7-2-1.7h-3.1v6.2h1.3v-2.5h0.2c0.5,0,0.8,0.1,1,0.3
	c0.2,0.3,0.6,0.8,0.8,1.2l0.5,1h1.5l-0.7-1.2C240.2,76.1,240,75.9,239.5,75.7z M237.4,74.9v-1.7h1.1c0.8,0,1.3,0.3,1.3,0.8
	c0,0.4-0.3,0.9-1.1,0.9L237.4,74.9z"/>
<path class="st1" d="M238.5,69.3c-1.6,0-3.1,0.6-4.2,1.8s-1.7,2.6-1.7,4.2s0.6,3.1,1.7,4.2c1.1,1.1,2.6,1.7,4.2,1.7c3.3,0,6-2.7,6-6
	c0-1.6-0.6-3.1-1.8-4.2C241.6,69.9,240.1,69.3,238.5,69.3z M238.5,80.1c-2.7,0-4.8-2.2-4.8-4.8c0-2.7,2.1-4.8,4.8-4.8
	s4.8,2.1,4.8,4.8C243.3,77.9,241.1,80.1,238.5,80.1z"/>
</svg>
